<mxfile host="app.diagrams.net" modified="2020-12-12T05:03:05.113Z" agent="5.0 (Windows NT 10.0; Win64; x64) AppleWebKit/537.36 (KHTML, like Gecko) Chrome/87.0.4280.88 Safari/537.36" etag="H4AEtSt9_YqcnKXUmUZA" version="14.0.1" type="github">
  <diagram id="lF6VvplVdN5SttAHjHnl" name="Page-1">
    <mxGraphModel dx="1422" dy="762" grid="0" gridSize="10" guides="1" tooltips="1" connect="1" arrows="1" fold="1" page="1" pageScale="1" pageWidth="1169" pageHeight="1654" math="0" shadow="0">
      <root>
        <mxCell id="0" />
        <mxCell id="1" parent="0" />
        <mxCell id="lyEI4mnbRMdbkcbY4WqS-1" value="ContentShare" style="shape=table;startSize=30;container=1;collapsible=1;childLayout=tableLayout;fixedRows=1;rowLines=0;fontStyle=1;align=center;resizeLast=1;" vertex="1" parent="1">
          <mxGeometry x="240" y="120" width="180" height="190" as="geometry" />
        </mxCell>
        <mxCell id="lyEI4mnbRMdbkcbY4WqS-2" value="" style="shape=partialRectangle;collapsible=0;dropTarget=0;pointerEvents=0;fillColor=none;top=0;left=0;bottom=1;right=0;points=[[0,0.5],[1,0.5]];portConstraint=eastwest;" vertex="1" parent="lyEI4mnbRMdbkcbY4WqS-1">
          <mxGeometry y="30" width="180" height="30" as="geometry" />
        </mxCell>
        <mxCell id="lyEI4mnbRMdbkcbY4WqS-3" value="PK" style="shape=partialRectangle;connectable=0;fillColor=none;top=0;left=0;bottom=0;right=0;fontStyle=1;overflow=hidden;" vertex="1" parent="lyEI4mnbRMdbkcbY4WqS-2">
          <mxGeometry width="30" height="30" as="geometry" />
        </mxCell>
        <mxCell id="lyEI4mnbRMdbkcbY4WqS-4" value="ID" style="shape=partialRectangle;connectable=0;fillColor=none;top=0;left=0;bottom=0;right=0;align=left;spacingLeft=6;fontStyle=5;overflow=hidden;" vertex="1" parent="lyEI4mnbRMdbkcbY4WqS-2">
          <mxGeometry x="30" width="150" height="30" as="geometry" />
        </mxCell>
        <mxCell id="lyEI4mnbRMdbkcbY4WqS-5" value="" style="shape=partialRectangle;collapsible=0;dropTarget=0;pointerEvents=0;fillColor=none;top=0;left=0;bottom=0;right=0;points=[[0,0.5],[1,0.5]];portConstraint=eastwest;" vertex="1" parent="lyEI4mnbRMdbkcbY4WqS-1">
          <mxGeometry y="60" width="180" height="30" as="geometry" />
        </mxCell>
        <mxCell id="lyEI4mnbRMdbkcbY4WqS-6" value="" style="shape=partialRectangle;connectable=0;fillColor=none;top=0;left=0;bottom=0;right=0;editable=1;overflow=hidden;" vertex="1" parent="lyEI4mnbRMdbkcbY4WqS-5">
          <mxGeometry width="30" height="30" as="geometry" />
        </mxCell>
        <mxCell id="lyEI4mnbRMdbkcbY4WqS-7" value="TenantId" style="shape=partialRectangle;connectable=0;fillColor=none;top=0;left=0;bottom=0;right=0;align=left;spacingLeft=6;overflow=hidden;" vertex="1" parent="lyEI4mnbRMdbkcbY4WqS-5">
          <mxGeometry x="30" width="150" height="30" as="geometry" />
        </mxCell>
        <mxCell id="lyEI4mnbRMdbkcbY4WqS-8" value="" style="shape=partialRectangle;collapsible=0;dropTarget=0;pointerEvents=0;fillColor=none;top=0;left=0;bottom=0;right=0;points=[[0,0.5],[1,0.5]];portConstraint=eastwest;" vertex="1" parent="lyEI4mnbRMdbkcbY4WqS-1">
          <mxGeometry y="90" width="180" height="30" as="geometry" />
        </mxCell>
        <mxCell id="lyEI4mnbRMdbkcbY4WqS-9" value="" style="shape=partialRectangle;connectable=0;fillColor=none;top=0;left=0;bottom=0;right=0;editable=1;overflow=hidden;" vertex="1" parent="lyEI4mnbRMdbkcbY4WqS-8">
          <mxGeometry width="30" height="30" as="geometry" />
        </mxCell>
        <mxCell id="lyEI4mnbRMdbkcbY4WqS-10" value="VirtualPath" style="shape=partialRectangle;connectable=0;fillColor=none;top=0;left=0;bottom=0;right=0;align=left;spacingLeft=6;overflow=hidden;" vertex="1" parent="lyEI4mnbRMdbkcbY4WqS-8">
          <mxGeometry x="30" width="150" height="30" as="geometry" />
        </mxCell>
        <mxCell id="lyEI4mnbRMdbkcbY4WqS-11" value="" style="shape=partialRectangle;collapsible=0;dropTarget=0;pointerEvents=0;fillColor=none;top=0;left=0;bottom=0;right=0;points=[[0,0.5],[1,0.5]];portConstraint=eastwest;" vertex="1" parent="lyEI4mnbRMdbkcbY4WqS-1">
          <mxGeometry y="120" width="180" height="30" as="geometry" />
        </mxCell>
        <mxCell id="lyEI4mnbRMdbkcbY4WqS-12" value="" style="shape=partialRectangle;connectable=0;fillColor=none;top=0;left=0;bottom=0;right=0;editable=1;overflow=hidden;" vertex="1" parent="lyEI4mnbRMdbkcbY4WqS-11">
          <mxGeometry width="30" height="30" as="geometry" />
        </mxCell>
        <mxCell id="lyEI4mnbRMdbkcbY4WqS-13" value="Name" style="shape=partialRectangle;connectable=0;fillColor=none;top=0;left=0;bottom=0;right=0;align=left;spacingLeft=6;overflow=hidden;" vertex="1" parent="lyEI4mnbRMdbkcbY4WqS-11">
          <mxGeometry x="30" width="150" height="30" as="geometry" />
        </mxCell>
        <mxCell id="lyEI4mnbRMdbkcbY4WqS-21" style="shape=partialRectangle;collapsible=0;dropTarget=0;pointerEvents=0;fillColor=none;top=0;left=0;bottom=0;right=0;points=[[0,0.5],[1,0.5]];portConstraint=eastwest;" vertex="1" parent="lyEI4mnbRMdbkcbY4WqS-1">
          <mxGeometry y="150" width="180" height="30" as="geometry" />
        </mxCell>
        <mxCell id="lyEI4mnbRMdbkcbY4WqS-22" style="shape=partialRectangle;connectable=0;fillColor=none;top=0;left=0;bottom=0;right=0;editable=1;overflow=hidden;" vertex="1" parent="lyEI4mnbRMdbkcbY4WqS-21">
          <mxGeometry width="30" height="30" as="geometry" />
        </mxCell>
        <mxCell id="lyEI4mnbRMdbkcbY4WqS-23" value="DFSPath" style="shape=partialRectangle;connectable=0;fillColor=none;top=0;left=0;bottom=0;right=0;align=left;spacingLeft=6;overflow=hidden;" vertex="1" parent="lyEI4mnbRMdbkcbY4WqS-21">
          <mxGeometry x="30" width="150" height="30" as="geometry" />
        </mxCell>
        <mxCell id="lyEI4mnbRMdbkcbY4WqS-19" value="DFS" style="aspect=fixed;html=1;points=[];align=center;image;fontSize=12;image=img/lib/azure2/general/Files.svg;" vertex="1" parent="1">
          <mxGeometry x="553" y="250" width="64" height="70" as="geometry" />
        </mxCell>
        <mxCell id="lyEI4mnbRMdbkcbY4WqS-20" value="" style="endArrow=classic;html=1;fontSize=3;" edge="1" parent="1" source="lyEI4mnbRMdbkcbY4WqS-21" target="lyEI4mnbRMdbkcbY4WqS-19">
          <mxGeometry width="50" height="50" relative="1" as="geometry">
            <mxPoint x="490" y="370" as="sourcePoint" />
            <mxPoint x="540" y="320" as="targetPoint" />
          </mxGeometry>
        </mxCell>
      </root>
    </mxGraphModel>
  </diagram>
</mxfile>
